<svg width="64" height="23" viewBox="0 0 64 23" fill="none" xmlns="http://www.w3.org/2000/svg">
<path d="M8.82022 21.9871C9.187 21.988 9.55325 21.9592 9.91542 21.9009C10.9204 21.733 11.8791 21.3552 12.7295 20.7918C13.58 20.2284 14.3033 19.492 14.8527 18.6303C16.7885 15.7105 16.1817 11.6043 13.5029 9.48435C12.9934 9.06442 12.4008 8.75818 11.7644 8.58593C11.128 8.41369 10.4624 8.37939 9.81182 8.48531C9.70745 8.50483 9.60793 8.54481 9.51895 8.60297C9.42996 8.66113 9.35324 8.73632 9.29319 8.82426C9.23313 8.9122 9.1909 9.01115 9.16892 9.11548C9.14693 9.21981 9.14563 9.32747 9.16506 9.43231C9.1845 9.53715 9.2243 9.63712 9.2822 9.72651C9.34009 9.81589 9.41495 9.89295 9.50249 9.95328C9.59003 10.0136 9.68855 10.056 9.79241 10.0781C9.89627 10.1002 10.0035 10.1015 10.1078 10.082C10.5306 10.0174 10.9623 10.0444 11.3738 10.1614C11.7853 10.2783 12.1671 10.4824 12.4936 10.7599C14.5271 12.3685 14.98 15.4964 13.5 17.7323C13.0714 18.4041 12.5076 18.9783 11.8449 19.4182C11.1822 19.858 10.4352 20.1538 9.65198 20.2864C8.91286 20.4014 8.15798 20.3601 7.4357 20.165C6.71342 19.9699 6.03969 19.6254 5.45766 19.1536C2.09806 16.4925 1.34918 11.3308 3.78822 7.64683C4.49078 6.54507 5.4153 5.60333 6.50221 4.88229C7.58913 4.16125 8.81434 3.67689 10.0989 3.4604C11.3163 3.26911 12.56 3.33561 13.7503 3.65564C14.9406 3.97567 16.0511 4.54215 17.0105 5.31873C18.9109 6.82323 20.379 8.99375 21.3736 11.7679C22.4688 14.8304 24.1116 17.2447 26.2546 18.9425C27.3892 19.8582 28.7017 20.5258 30.108 20.9026C31.5142 21.2794 32.9834 21.3572 34.4213 21.1308C35.9261 20.8778 37.3616 20.3118 38.6359 19.469C39.9103 18.6262 40.9952 17.5253 41.8213 16.2367C44.7161 11.866 43.8133 5.72904 39.8085 2.55949C39.0513 1.94648 38.1746 1.49981 37.235 1.24834C36.2953 0.996873 35.3136 0.946198 34.3532 1.09959C33.3487 1.2677 32.3905 1.64566 31.5406 2.20904C30.6906 2.77242 29.9678 3.50868 29.4189 4.37024C27.486 7.29004 28.0898 11.3932 30.7716 13.5162C31.2817 13.9371 31.8753 14.2439 32.5129 14.4162C33.1504 14.5884 33.8171 14.6222 34.4686 14.5152C34.573 14.4957 34.6725 14.4557 34.7615 14.3975C34.8505 14.3394 34.9272 14.2642 34.9873 14.1762C35.0473 14.0883 35.0895 13.9894 35.1115 13.885C35.1335 13.7807 35.1348 13.673 35.1154 13.5682C35.0959 13.4634 35.0561 13.3634 34.9982 13.274C34.9404 13.1846 34.8655 13.1076 34.778 13.0472C34.6904 12.9869 34.5919 12.9445 34.488 12.9224C34.3842 12.9003 34.277 12.899 34.1726 12.9185C33.7498 12.9835 33.3181 12.9567 32.9065 12.8397C32.4949 12.7228 32.1131 12.5185 31.7869 12.2406C29.7533 10.6291 29.3005 7.50114 30.7805 5.26818C31.2091 4.59644 31.7729 4.0222 32.4355 3.58234C33.0982 3.14248 33.8452 2.84673 34.6285 2.7141C35.368 2.59734 36.1238 2.63784 36.8468 2.83298C37.5698 3.02812 38.244 3.37356 38.8257 3.84694C42.1853 6.52292 42.9342 11.6697 40.4952 15.3537C39.792 16.4551 38.8673 17.3968 37.7805 18.1182C36.6938 18.8397 35.4689 19.325 34.1845 19.5431C32.9669 19.734 31.723 19.667 30.5328 19.3464C29.3425 19.0259 28.2321 18.4589 27.2729 17.6818C25.3725 16.1743 23.9044 14.0068 22.9098 11.2327C21.8146 8.16716 20.1718 5.75283 18.0288 4.05804C16.895 3.1409 15.5826 2.47237 14.1761 2.09547C12.7696 1.71858 11.3 1.64166 9.86214 1.86968C8.35688 2.12127 6.92076 2.68672 5.64625 3.52964C4.37174 4.37255 3.28708 5.47424 2.46214 6.76376C-0.432743 11.1345 0.470066 17.2715 4.47791 20.441C5.71 21.4342 7.24049 21.9791 8.82022 21.9871Z" fill="#232323" stroke="#232323"/>
<path d="M36.7666 11.0129H61.7666" stroke="#232323" stroke-width="3" stroke-linecap="round"/>
<circle r="3" transform="matrix(-1 0 0 1 60.7666 11.0129)" fill="#232323"/>
</svg>
