<svg width="10" height="20" viewBox="0 0 20 17" fill="none" xmlns="http://www.w3.org/2000/svg">
  <path d="M19.5949 9.01139C20.135 8.48667 20.135 7.63454 19.5949 7.10983L12.6803 0.393533C12.1401 -0.131178 11.2628 -0.131178 10.7226 0.393533C10.1824 0.918244 10.1824 1.77037 10.7226 2.29509L15.2819 6.71945L2.02326 6.71945C1.25833 6.71945 0.640347 7.31972 0.640347 8.06271C0.640347 8.8057 1.25833 9.40597 2.02326 9.40597L15.2819 9.40597L10.7269 13.8303C10.1867 14.355 10.1867 15.2072 10.7269 15.7319C11.2671 16.2566 12.1444 16.2566 12.6846 15.7319L19.5992 9.01558L19.5949 9.01139Z" fill="#232323"/>
</svg>
